<mxfile host="app.diagrams.net" modified="2024-05-30T17:37:37.586Z" agent="Mozilla/5.0 (X11; Ubuntu; Linux x86_64; rv:126.0) Gecko/20100101 Firefox/126.0" etag="fOo_SEMSJxfvplIL45RN" version="24.4.10" type="device">
  <diagram name="P치gina-1" id="OwebeVIKg0eg-yIBNbvA">
    <mxGraphModel dx="1477" dy="379" grid="1" gridSize="10" guides="1" tooltips="1" connect="1" arrows="1" fold="1" page="1" pageScale="1" pageWidth="827" pageHeight="1169" math="0" shadow="0">
      <root>
        <mxCell id="0" />
        <mxCell id="1" parent="0" />
        <mxCell id="6M7ynWFROlGnJpCbzDop-3" value="" style="edgeStyle=orthogonalEdgeStyle;rounded=0;orthogonalLoop=1;jettySize=auto;html=1;" edge="1" parent="1" source="6M7ynWFROlGnJpCbzDop-1" target="6M7ynWFROlGnJpCbzDop-2">
          <mxGeometry relative="1" as="geometry" />
        </mxCell>
        <mxCell id="6M7ynWFROlGnJpCbzDop-1" value="Inicio" style="rounded=0;whiteSpace=wrap;html=1;" vertex="1" parent="1">
          <mxGeometry x="350" y="380" width="120" height="60" as="geometry" />
        </mxCell>
        <mxCell id="6M7ynWFROlGnJpCbzDop-5" value="" style="edgeStyle=orthogonalEdgeStyle;rounded=0;orthogonalLoop=1;jettySize=auto;html=1;" edge="1" parent="1" source="6M7ynWFROlGnJpCbzDop-2" target="6M7ynWFROlGnJpCbzDop-4">
          <mxGeometry relative="1" as="geometry" />
        </mxCell>
        <mxCell id="6M7ynWFROlGnJpCbzDop-7" value="" style="edgeStyle=orthogonalEdgeStyle;rounded=0;orthogonalLoop=1;jettySize=auto;html=1;" edge="1" parent="1" source="6M7ynWFROlGnJpCbzDop-2" target="6M7ynWFROlGnJpCbzDop-6">
          <mxGeometry relative="1" as="geometry" />
        </mxCell>
        <mxCell id="6M7ynWFROlGnJpCbzDop-2" value="Ajuste del vector tiempo" style="whiteSpace=wrap;html=1;rounded=0;" vertex="1" parent="1">
          <mxGeometry x="350" y="520" width="120" height="60" as="geometry" />
        </mxCell>
        <mxCell id="6M7ynWFROlGnJpCbzDop-9" value="" style="edgeStyle=orthogonalEdgeStyle;rounded=0;orthogonalLoop=1;jettySize=auto;html=1;" edge="1" parent="1" source="6M7ynWFROlGnJpCbzDop-4" target="6M7ynWFROlGnJpCbzDop-8">
          <mxGeometry relative="1" as="geometry" />
        </mxCell>
        <mxCell id="6M7ynWFROlGnJpCbzDop-4" value="Se agrega el valor valorAjuste (convertido a horas utilizando la funci칩n hours) a cada uno de los vectores de tiempo t{:,1}, t{:,2} y t{:,3}" style="whiteSpace=wrap;html=1;rounded=0;" vertex="1" parent="1">
          <mxGeometry x="325" y="650" width="170" height="90" as="geometry" />
        </mxCell>
        <mxCell id="6M7ynWFROlGnJpCbzDop-6" value="&lt;div&gt;IN:&lt;/div&gt;&lt;div&gt;valorAjuste=-5&lt;em&gt; desde las configuraciones&lt;/em&gt;&lt;/div&gt;&lt;div&gt;&lt;em&gt;&lt;/em&gt;&lt;/div&gt;" style="whiteSpace=wrap;html=1;rounded=0;fillColor=#f8cecc;strokeColor=#b85450;" vertex="1" parent="1">
          <mxGeometry x="130" y="520" width="140" height="60" as="geometry" />
        </mxCell>
        <mxCell id="6M7ynWFROlGnJpCbzDop-11" value="" style="edgeStyle=orthogonalEdgeStyle;rounded=0;orthogonalLoop=1;jettySize=auto;html=1;" edge="1" parent="1" source="6M7ynWFROlGnJpCbzDop-8" target="6M7ynWFROlGnJpCbzDop-10">
          <mxGeometry relative="1" as="geometry" />
        </mxCell>
        <mxCell id="6M7ynWFROlGnJpCbzDop-13" value="" style="edgeStyle=orthogonalEdgeStyle;rounded=0;orthogonalLoop=1;jettySize=auto;html=1;dashed=1;dashPattern=8 8;" edge="1" parent="1" source="6M7ynWFROlGnJpCbzDop-8" target="6M7ynWFROlGnJpCbzDop-12">
          <mxGeometry relative="1" as="geometry" />
        </mxCell>
        <mxCell id="6M7ynWFROlGnJpCbzDop-8" value="Ajuste del campo evento en la estructura info" style="whiteSpace=wrap;html=1;rounded=0;" vertex="1" parent="1">
          <mxGeometry x="350" y="800" width="120" height="60" as="geometry" />
        </mxCell>
        <mxCell id="6M7ynWFROlGnJpCbzDop-15" value="" style="edgeStyle=orthogonalEdgeStyle;rounded=0;orthogonalLoop=1;jettySize=auto;html=1;" edge="1" parent="1" source="6M7ynWFROlGnJpCbzDop-10" target="6M7ynWFROlGnJpCbzDop-14">
          <mxGeometry relative="1" as="geometry" />
        </mxCell>
        <mxCell id="6M7ynWFROlGnJpCbzDop-17" value="" style="edgeStyle=orthogonalEdgeStyle;rounded=0;orthogonalLoop=1;jettySize=auto;html=1;dashed=1;dashPattern=8 8;" edge="1" parent="1" source="6M7ynWFROlGnJpCbzDop-10" target="6M7ynWFROlGnJpCbzDop-16">
          <mxGeometry relative="1" as="geometry" />
        </mxCell>
        <mxCell id="6M7ynWFROlGnJpCbzDop-10" value="Se ajusta el campo &#39;evento&#39; dentro de la estructura &lt;code class=&quot;bg-bg-300 px-1 py-px text-accent-secondary-000 rounded-[0.3rem] text-[0.95em] whitespace-pre-wrap&quot;&gt;info{1}{1}&lt;/code&gt;, &lt;code class=&quot;bg-bg-300 px-1 py-px text-accent-secondary-000 rounded-[0.3rem] text-[0.95em] whitespace-pre-wrap&quot;&gt;info{1}{2}&lt;/code&gt; y &lt;code class=&quot;bg-bg-300 px-1 py-px text-accent-secondary-000 rounded-[0.3rem] text-[0.95em] whitespace-pre-wrap&quot;&gt;info{1}{3}&lt;/code&gt;" style="whiteSpace=wrap;html=1;rounded=0;" vertex="1" parent="1">
          <mxGeometry x="340" y="910" width="140" height="90" as="geometry" />
        </mxCell>
        <mxCell id="6M7ynWFROlGnJpCbzDop-12" value="info{1}{1}.evento = datestr(datetime(info{1}{1}.evento, &#39;format&#39;, &#39;yyyyMMddHHmm&#39;) + hours(valorAjuste), &#39;yyyymmddHHMM&#39;);" style="whiteSpace=wrap;html=1;rounded=0;fillColor=#f8cecc;strokeColor=#b85450;" vertex="1" parent="1">
          <mxGeometry x="-410" y="800" width="680" height="60" as="geometry" />
        </mxCell>
        <mxCell id="6M7ynWFROlGnJpCbzDop-19" value="" style="edgeStyle=orthogonalEdgeStyle;rounded=0;orthogonalLoop=1;jettySize=auto;html=1;dashed=1;" edge="1" parent="1" source="6M7ynWFROlGnJpCbzDop-14" target="6M7ynWFROlGnJpCbzDop-18">
          <mxGeometry relative="1" as="geometry" />
        </mxCell>
        <mxCell id="6M7ynWFROlGnJpCbzDop-21" value="" style="edgeStyle=orthogonalEdgeStyle;rounded=0;orthogonalLoop=1;jettySize=auto;html=1;dashed=1;" edge="1" parent="1" source="6M7ynWFROlGnJpCbzDop-14" target="6M7ynWFROlGnJpCbzDop-20">
          <mxGeometry relative="1" as="geometry" />
        </mxCell>
        <mxCell id="6M7ynWFROlGnJpCbzDop-24" value="" style="edgeStyle=orthogonalEdgeStyle;rounded=0;orthogonalLoop=1;jettySize=auto;html=1;" edge="1" parent="1" source="6M7ynWFROlGnJpCbzDop-14" target="6M7ynWFROlGnJpCbzDop-23">
          <mxGeometry relative="1" as="geometry" />
        </mxCell>
        <mxCell id="6M7ynWFROlGnJpCbzDop-14" value="Ajuste del campo &#39;fecha&#39; en la estructura &lt;code class=&quot;bg-bg-300 px-1 py-px text-accent-secondary-000 rounded-[0.3rem] text-[0.95em] whitespace-pre-wrap&quot;&gt;info&lt;/code&gt;" style="whiteSpace=wrap;html=1;rounded=0;" vertex="1" parent="1">
          <mxGeometry x="350" y="1070" width="120" height="60" as="geometry" />
        </mxCell>
        <mxCell id="6M7ynWFROlGnJpCbzDop-16" value="Primero, se convierte el valor existente de &#39;evento&#39; a un objeto &lt;code class=&quot;bg-bg-300 px-1 py-px text-accent-secondary-000 rounded-[0.3rem] text-[0.95em] whitespace-pre-wrap&quot;&gt;datetime&lt;/code&gt;, luego se le suma el &lt;code class=&quot;bg-bg-300 px-1 py-px text-accent-secondary-000 rounded-[0.3rem] text-[0.95em] whitespace-pre-wrap&quot;&gt;valorAjuste&lt;/code&gt; (convertido a horas), y finalmente se convierte de vuelta a una cadena de caracteres con el formato &#39;yyyymmddHHMM&#39; utilizando la funci칩n &lt;code class=&quot;bg-bg-300 px-1 py-px text-accent-secondary-000 rounded-[0.3rem] text-[0.95em] whitespace-pre-wrap&quot;&gt;datestr&lt;/code&gt;." style="whiteSpace=wrap;html=1;rounded=0;fillColor=#e1d5e7;strokeColor=#9673a6;" vertex="1" parent="1">
          <mxGeometry x="30" y="925" width="220" height="125" as="geometry" />
        </mxCell>
        <mxCell id="6M7ynWFROlGnJpCbzDop-18" value="Primero, se convierte el valor existente de &#39;evento&#39; a un objeto &lt;code class=&quot;bg-bg-300 px-1 py-px text-accent-secondary-000 rounded-[0.3rem] text-[0.95em] whitespace-pre-wrap&quot;&gt;datetime&lt;/code&gt;, y luego se extrae la fecha utilizando el formato &#39;yyyymmdd&#39; con la funci칩n &lt;code class=&quot;bg-bg-300 px-1 py-px text-accent-secondary-000 rounded-[0.3rem] text-[0.95em] whitespace-pre-wrap&quot;&gt;datestr&lt;/code&gt;." style="whiteSpace=wrap;html=1;rounded=0;fillColor=#e1d5e7;strokeColor=#9673a6;" vertex="1" parent="1">
          <mxGeometry x="530" y="1060" width="230" height="120" as="geometry" />
        </mxCell>
        <mxCell id="6M7ynWFROlGnJpCbzDop-20" value="info{1}{1}.fecha = datestr(datetime(info{1}{1}.evento, &#39;format&#39;, &#39;yyyyMMddHHmm&#39;), &#39;yyyymmdd&#39;);" style="whiteSpace=wrap;html=1;rounded=0;fillColor=#f8cecc;strokeColor=#b85450;" vertex="1" parent="1">
          <mxGeometry x="-340" y="1075" width="600" height="50" as="geometry" />
        </mxCell>
        <mxCell id="6M7ynWFROlGnJpCbzDop-26" value="" style="edgeStyle=orthogonalEdgeStyle;rounded=0;orthogonalLoop=1;jettySize=auto;html=1;dashed=1;dashPattern=8 8;" edge="1" parent="1" source="6M7ynWFROlGnJpCbzDop-23" target="6M7ynWFROlGnJpCbzDop-25">
          <mxGeometry relative="1" as="geometry" />
        </mxCell>
        <mxCell id="6M7ynWFROlGnJpCbzDop-28" value="" style="edgeStyle=orthogonalEdgeStyle;rounded=0;orthogonalLoop=1;jettySize=auto;html=1;dashed=1;" edge="1" parent="1" source="6M7ynWFROlGnJpCbzDop-23" target="6M7ynWFROlGnJpCbzDop-27">
          <mxGeometry relative="1" as="geometry" />
        </mxCell>
        <mxCell id="6M7ynWFROlGnJpCbzDop-30" value="" style="edgeStyle=orthogonalEdgeStyle;rounded=0;orthogonalLoop=1;jettySize=auto;html=1;" edge="1" parent="1" source="6M7ynWFROlGnJpCbzDop-23" target="6M7ynWFROlGnJpCbzDop-29">
          <mxGeometry relative="1" as="geometry" />
        </mxCell>
        <mxCell id="6M7ynWFROlGnJpCbzDop-23" value="Ajuste del campo &#39;hora&#39; en la estructura &lt;code class=&quot;bg-bg-300 px-1 py-px text-accent-secondary-000 rounded-[0.3rem] text-[0.95em] whitespace-pre-wrap&quot;&gt;info&lt;/code&gt;" style="whiteSpace=wrap;html=1;rounded=0;" vertex="1" parent="1">
          <mxGeometry x="350" y="1210" width="120" height="60" as="geometry" />
        </mxCell>
        <mxCell id="6M7ynWFROlGnJpCbzDop-25" value="info{1}{1}.hora = datestr(datetime(info{1}{1}.evento, &#39;format&#39;, &#39;yyyyMMddHHmm&#39;), &#39;HH MM SS.FFF&#39;);" style="whiteSpace=wrap;html=1;rounded=0;fillColor=#f8cecc;strokeColor=#b85450;" vertex="1" parent="1">
          <mxGeometry x="-310" y="1210" width="580" height="60" as="geometry" />
        </mxCell>
        <mxCell id="6M7ynWFROlGnJpCbzDop-27" value="Primero, se convierte el valor existente de &#39;evento&#39; a un objeto &lt;code class=&quot;bg-bg-300 px-1 py-px text-accent-secondary-000 rounded-[0.3rem] text-[0.95em] whitespace-pre-wrap&quot;&gt;datetime&lt;/code&gt;, y luego se extrae la hora utilizando el formato &#39;HH MM SS.FFF&#39; con la funci칩n &lt;code class=&quot;bg-bg-300 px-1 py-px text-accent-secondary-000 rounded-[0.3rem] text-[0.95em] whitespace-pre-wrap&quot;&gt;datestr&lt;/code&gt;" style="whiteSpace=wrap;html=1;rounded=0;fillColor=#e1d5e7;strokeColor=#9673a6;" vertex="1" parent="1">
          <mxGeometry x="550" y="1210" width="220" height="110" as="geometry" />
        </mxCell>
        <mxCell id="6M7ynWFROlGnJpCbzDop-32" value="" style="edgeStyle=orthogonalEdgeStyle;rounded=0;orthogonalLoop=1;jettySize=auto;html=1;" edge="1" parent="1" source="6M7ynWFROlGnJpCbzDop-29" target="6M7ynWFROlGnJpCbzDop-31">
          <mxGeometry relative="1" as="geometry" />
        </mxCell>
        <mxCell id="6M7ynWFROlGnJpCbzDop-29" value="Finalmente, se muestra el mensaje &quot;Ajuste de hora realizado&quot;" style="whiteSpace=wrap;html=1;rounded=0;" vertex="1" parent="1">
          <mxGeometry x="350" y="1350" width="120" height="60" as="geometry" />
        </mxCell>
        <mxCell id="6M7ynWFROlGnJpCbzDop-31" value="Fin" style="whiteSpace=wrap;html=1;rounded=0;fillColor=#dae8fc;strokeColor=#6c8ebf;" vertex="1" parent="1">
          <mxGeometry x="350" y="1490" width="120" height="60" as="geometry" />
        </mxCell>
      </root>
    </mxGraphModel>
  </diagram>
</mxfile>
